<svg width="125" height="127" viewBox="0 0 125 127" fill="none" xmlns="http://www.w3.org/2000/svg">
<g clip-path="url(#clip0)">
<path d="M87.3822 37.3098C91.1507 37.3081 94.9123 37.4536 98.6601 37.7464C104.843 38.2274 110.999 38.9618 117.054 40.3381C121.836 41.4235 124.959 45.3761 124.942 50.2464C124.931 52.7526 125.143 55.269 124.821 57.7632C124.105 63.2874 121.083 67.1443 116.007 69.4364C110.209 72.0556 105.131 75.6454 100.76 80.2572C97.63 83.5576 93.8615 85.908 89.4304 87.1286C88.5555 87.37 87.7876 87.7534 87.0716 88.3046C85.3667 89.6177 83.6999 90.9512 82.3471 92.6511C81.103 94.2123 80.9529 96.032 80.8252 97.8877C80.4956 102.659 80.1453 107.43 79.8158 112.201C79.5621 115.864 79.2929 119.529 79.1048 123.196C79.0583 124.124 78.7477 124.641 77.878 124.992C76.5217 125.538 75.2052 126.183 73.8921 126.825C73.3951 127.068 73.0034 127.07 72.5513 126.729C71.4988 125.937 70.4341 125.158 69.3384 124.425C68.7949 124.062 68.7466 123.54 68.7034 123.009C68.5585 121.193 68.448 119.373 68.3169 117.557C67.9873 112.985 67.6543 108.414 67.323 103.842C67.1487 101.428 66.9296 99.0158 66.8174 96.5986C66.7484 95.0836 65.8442 94.3424 64.5691 93.9144C63.1956 93.4539 61.81 93.2913 60.345 93.6833C58.2399 94.2465 56.0933 94.6505 53.9692 95.147C53.5258 95.2514 53.1289 95.224 52.7113 95.0717C40.5257 90.6328 28.3384 86.199 16.151 81.7636C11.1367 79.9439 6.12749 78.1036 1.09933 76.3147C0.30214 76.0306 -0.00845312 75.6608 0.000174473 74.7912C0.0450379 70.2308 0.0174297 65.6686 0.0226062 61.1082C0.0260572 58.3316 2.17605 56.1797 4.98865 56.19C6.36561 56.1952 7.7443 56.2653 9.11609 56.3783C11.4783 56.5701 13.2798 55.5275 14.8172 53.9012C16.5479 52.0713 17.6125 49.851 18.2924 47.4783C18.9723 45.1108 20.4855 44.0426 22.8926 43.844C24.9184 43.6763 26.9269 43.2945 28.9457 43.0223C29.2978 42.9744 29.5014 42.7656 29.7205 42.5345C39.6647 32.015 49.6106 21.4956 59.5582 10.9779C62.1533 8.23377 64.7727 5.51361 67.3316 2.73697C68.7966 1.14835 70.5687 0.396844 72.7118 0.234217C75.5209 0.0185216 78.318 -0.169784 81.1237 0.249624C82.6404 0.477302 84.1123 0.845353 85.4789 1.53524C87.0267 2.31585 88.0948 3.54154 88.735 5.14899C89.294 6.55272 89.8876 7.94447 90.4743 9.33793C91.0092 10.6098 91.8392 11.6438 93.0263 12.3748C94.003 12.9756 94.9606 13.6125 95.9735 14.1483C98.3841 15.4202 99.4314 17.5429 99.5902 20.0867C100.02 26.9582 96.8173 31.9277 91.111 35.5004C89.9428 36.2314 88.6901 36.8065 87.3822 37.3098ZM38.669 47.8892C39.028 48.0159 39.1073 48.0501 39.1901 48.0723C49.048 50.7429 58.9059 53.4117 68.7621 56.0856C69.2677 56.2225 69.7612 56.2773 70.2892 56.2208C74.2527 55.798 78.2196 55.3871 82.1866 54.9968C82.7905 54.9369 82.8268 54.6802 82.6542 54.2043C82.1866 52.9186 81.7621 51.6159 81.2773 50.3371C77.1636 39.4856 73.0396 28.6375 68.9243 17.7877C68.3342 16.2316 68.8087 15.1121 70.2719 14.53C71.4573 14.0593 72.6203 14.6909 73.2225 16.1323C76.891 24.9228 80.5577 33.7149 84.2314 42.5036C85.7274 46.0814 87.1458 49.6935 88.8299 53.1925C89.0335 53.6137 89.206 53.9971 89.8082 53.9766C92.3844 53.8858 94.8537 53.3894 96.9346 51.8025C99.3003 49.9999 101.977 49.0241 104.863 48.4678C106.535 48.146 108.169 47.6752 109.462 46.4803C110.442 45.573 110.34 44.6846 109.205 43.9758C108.435 43.4965 107.571 43.2603 106.694 43.1199C102.025 42.3684 97.3177 42.418 92.6088 42.4951C91.0868 42.5208 89.5632 42.531 88.0448 42.6132C87.3149 42.6526 86.9732 42.3547 86.704 41.7145C84.1606 35.699 81.5913 29.6937 79.0255 23.6868C77.7589 20.7236 76.5252 17.7449 75.1983 14.8073C74.2855 12.7873 71.9715 11.6524 69.951 12.0872C66.8864 12.7463 65.3749 15.6564 66.5327 18.719C68.6896 24.4263 70.862 30.1286 73.0276 35.8342C73.8679 38.0459 74.6961 40.2645 75.5606 42.4677C75.8039 43.0891 75.6676 43.3835 74.9929 43.4109C74.8204 43.4178 74.6496 43.4315 74.477 43.4417C70.4376 43.6763 66.4137 44.0991 62.3949 44.5476C57.6635 45.0749 52.946 45.7254 48.2319 46.3827C45.1087 46.8158 42.001 47.3585 38.669 47.8892ZM27.2358 71.1808C27.2392 71.1158 27.2427 71.0507 27.2444 70.9857C25.6828 70.4345 24.1264 69.873 22.5579 69.344C22.3301 69.267 22.0454 69.3081 21.7969 69.3526C20.5856 69.57 19.376 69.7908 18.1699 70.0407C16.522 70.3814 16.6376 70.0989 16.6342 71.9392C16.6342 71.9957 16.6393 72.0539 16.6342 72.1104C16.5772 72.6684 16.7981 72.9971 17.3554 73.1957C18.622 73.6459 19.873 74.1441 21.1188 74.6474C21.7037 74.8836 21.9401 74.7775 21.9557 74.103C21.9867 72.7763 22.3129 72.4134 23.5897 72.0916C24.8045 71.7834 26.021 71.4838 27.2358 71.1808ZM46.0146 77.8195C46.0198 77.7578 46.0266 77.6962 46.0318 77.6346C44.6324 77.1535 43.233 76.6708 41.8319 76.1966C41.7301 76.1624 41.599 76.1641 41.4954 76.1966C39.166 76.9361 36.733 77.1963 34.3552 77.7031C33.9618 77.7869 33.5736 77.852 33.5701 78.4186C33.5667 78.9578 33.6685 79.3173 34.2534 79.5245C35.8478 80.0877 37.4301 80.6885 38.9952 81.3236C39.6733 81.5993 39.8838 81.4983 39.8631 80.7365C39.8234 79.2917 40.084 79.0178 41.5006 78.7285C43.0053 78.422 44.5099 78.1242 46.0146 77.8195ZM16.8378 67.4199C15.7662 67.0433 14.8897 66.7728 14.0459 66.4287C12.7725 65.91 11.4714 65.9288 10.1583 66.1531C8.26196 66.4783 7.86164 66.997 7.87717 68.8955C7.88062 69.4296 8.04799 69.7292 8.56737 69.9089C9.56817 70.2547 10.5483 70.6587 11.5422 71.0285C13.6059 71.7954 13.6076 71.792 13.668 69.6504C13.6697 69.5939 13.6697 69.5374 13.6715 69.4792C13.6973 68.6712 14.0839 68.1388 14.8862 67.9283C15.466 67.7742 16.0475 67.6253 16.8378 67.4199ZM36.1739 74.4128C36.1808 74.3564 36.1877 74.2999 36.1946 74.2434C35.4527 73.9849 34.7159 73.7144 33.9687 73.4747C33.4856 73.3207 33.0352 72.9937 32.4882 73.1204C30.1709 73.6613 27.8569 74.2126 25.5396 74.7518C25.1824 74.834 24.9891 75.012 24.9788 75.3903C24.9684 75.7823 24.996 76.1316 25.4412 76.2942C27.0304 76.8745 28.6162 77.4617 30.2036 78.042C30.5919 78.1841 30.7334 78.0163 30.7109 77.6363C30.6989 77.4086 30.7075 77.1809 30.7109 76.9533C30.723 75.7875 30.9404 75.5067 32.0776 75.2619C33.4407 74.9709 34.8091 74.6953 36.1739 74.4128ZM53.1254 80.3445C52.5284 79.9045 51.9624 79.6974 51.2567 79.8412C48.7305 80.3513 46.1923 80.7981 43.6575 81.262C43.2365 81.3391 42.8914 81.4401 42.8724 81.9793C42.8552 82.4809 43.0346 82.7599 43.5212 82.9328C44.8982 83.419 46.2596 83.9462 47.6297 84.4547C49.0411 84.9802 49.0411 84.9785 49.048 83.508C49.0567 81.916 49.3949 81.4503 50.9168 80.9796C51.6501 80.7519 52.3904 80.555 53.1254 80.3445Z" fill="#4F4F4F"/>
<path d="M115.632 73.9373C115.292 79.518 114.962 84.9172 114.638 90.3182C114.455 93.3602 114.277 96.4005 114.113 99.4425C114.093 99.843 113.986 100.148 113.656 100.394C112.512 101.255 111.371 102.123 110.245 103.005C109.86 103.306 109.542 103.277 109.17 102.986C108.064 102.123 106.952 101.264 105.819 100.439C105.391 100.127 105.289 99.7078 105.253 99.2524C104.999 96.0735 104.763 92.8946 104.509 89.7156C104.309 87.218 104.128 84.7204 103.869 82.2279C103.743 81.021 103.926 80.1189 104.952 79.2373C107.819 76.779 110.757 74.4817 114.386 73.2286C115.666 72.7886 115.67 72.8023 115.632 73.9373Z" fill="#4F4F4F"/>
<path d="M28.0813 90.0151C27.7448 94.1681 27.4066 98.3073 27.0771 102.447C26.9839 103.609 26.8907 104.773 26.8441 105.939C26.8148 106.685 26.5025 107.002 25.7743 107.327C23.469 108.359 21.5606 107.93 19.6176 106.413C18.6445 105.653 18.1596 104.968 18.1026 103.717C17.9301 99.9097 17.5936 96.111 17.3313 92.309C17.1691 89.9534 17.0345 87.5962 16.8637 85.2407C16.824 84.6826 17.0587 84.674 17.4711 84.8264C20.86 86.0761 24.2489 87.3274 27.6413 88.5651C28.492 88.8732 27.9208 89.5409 28.0813 90.0151Z" fill="#4F4F4F"/>
<path d="M53.4104 104.984C53.4104 106.92 53.3983 108.858 53.419 110.794C53.4242 111.297 53.2671 111.653 52.853 111.953C51.5295 112.906 50.213 113.872 48.9154 114.86C48.3995 115.252 47.9232 115.33 47.3348 115.015C46.5273 114.584 45.6852 114.216 44.857 113.822C44.4584 113.632 44.0546 113.428 44.0857 112.908C44.115 112.408 44.5101 112.218 44.9156 112.03C46.4237 111.331 47.9042 110.571 49.433 109.921C50.1974 109.596 50.4028 109.132 50.3941 108.349C50.3545 105.045 50.3752 101.741 50.3786 98.4376C50.3803 97.3882 50.439 97.3334 51.4571 97.6535C53.8158 98.3965 53.3689 97.9189 53.4069 100.199C53.4311 101.795 53.4104 103.39 53.4104 104.984Z" fill="#4F4F4F"/>
<path d="M47.0162 102.395C47.0162 104.361 46.999 106.326 47.0266 108.291C47.0352 108.892 46.8368 109.233 46.2466 109.429C44.723 109.934 43.2149 110.489 41.6982 111.016C41.5118 111.081 41.2892 111.179 41.1167 111.134C39.6431 110.756 38.2213 110.229 36.8443 109.589C36.5699 109.46 36.4681 109.161 36.5285 108.851C36.6182 108.394 36.9564 108.192 37.3792 108.118C38.9046 107.854 40.4334 107.611 41.957 107.343C44.3382 106.923 44.038 107.397 44.0483 104.907C44.0621 101.972 44.0483 99.0383 44.0535 96.1042C44.0552 94.9863 44.1312 94.9213 45.1596 95.2585C47.294 95.9587 46.9921 95.3561 47.0128 97.7801C47.0283 99.3191 47.0179 100.858 47.0162 102.395Z" fill="#4F4F4F"/>
</g>
<defs>
<clipPath id="clip0">
<rect width="125" height="127" fill="white"/>
</clipPath>
</defs>
</svg>
