<svg width="766" height="700" viewBox="0 0 766 700" fill="none" xmlns="http://www.w3.org/2000/svg">
<g clip-path="url(#clip0)">
<rect width="766" height="700" fill="#F2F2F2"/>
<rect width="515" height="123" fill="#BDBDBD"/>
<circle cx="703.5" cy="50.5" r="238" fill="#BDBDBD" stroke="#F2F2F2" stroke-width="5"/>
<circle cx="131" cy="385" r="50" fill="#BDBDBD"/>
<circle cx="131" cy="581" r="50" fill="#BDBDBD"/>
<circle cx="327" cy="385" r="50" fill="#BDBDBD"/>
<circle cx="327" cy="581" r="50" fill="#BDBDBD"/>
<circle cx="625" cy="581" r="50" fill="#BDBDBD"/>
<rect x="348" y="188" width="42" height="80" rx="5" transform="rotate(-90 348 188)" fill="#C4C4C4"/>
<rect x="458.346" y="247.928" width="42" height="80" rx="5" transform="rotate(-45.7649 458.346 247.928)" fill="#C4C4C4"/>
<rect x="609.73" y="350.384" width="42" height="80" rx="5" transform="rotate(-81.9047 609.73 350.384)" fill="#C4C4C4"/>
<g clip-path="url(#clip1)">
<path d="M658.382 91.3098C662.151 91.3081 665.912 91.4536 669.66 91.7464C675.843 92.2274 681.999 92.9618 688.054 94.3381C692.836 95.4235 695.959 99.3761 695.942 104.246C695.931 106.753 696.143 109.269 695.821 111.763C695.105 117.287 692.083 121.144 687.007 123.436C681.209 126.056 676.131 129.645 671.76 134.257C668.63 137.558 664.861 139.908 660.43 141.129C659.556 141.37 658.788 141.753 658.072 142.305C656.367 143.618 654.7 144.951 653.347 146.651C652.103 148.212 651.953 150.032 651.825 151.888C651.496 156.659 651.145 161.43 650.816 166.201C650.562 169.864 650.293 173.529 650.105 177.196C650.058 178.124 649.748 178.641 648.878 178.992C647.522 179.538 646.205 180.183 644.892 180.825C644.395 181.068 644.003 181.07 643.551 180.729C642.499 179.937 641.434 179.158 640.338 178.425C639.795 178.062 639.747 177.54 639.703 177.009C639.558 175.193 639.448 173.373 639.317 171.557C638.987 166.985 638.654 162.414 638.323 157.842C638.149 155.428 637.93 153.016 637.817 150.599C637.748 149.084 636.844 148.342 635.569 147.914C634.196 147.454 632.81 147.291 631.345 147.683C629.24 148.247 627.093 148.651 624.969 149.147C624.526 149.251 624.129 149.224 623.711 149.072C611.526 144.633 599.338 140.199 587.151 135.764C582.137 133.944 577.127 132.104 572.099 130.315C571.302 130.031 570.992 129.661 571 128.791C571.045 124.231 571.017 119.669 571.023 115.108C571.026 112.332 573.176 110.18 575.989 110.19C577.366 110.195 578.744 110.265 580.116 110.378C582.478 110.57 584.28 109.528 585.817 107.901C587.548 106.071 588.613 103.851 589.292 101.478C589.972 99.1108 591.486 98.0426 593.893 97.844C595.918 97.6763 597.927 97.2945 599.946 97.0223C600.298 96.9744 600.501 96.7656 600.721 96.5345C610.665 86.015 620.611 75.4956 630.558 64.9779C633.153 62.2338 635.773 59.5136 638.332 56.737C639.797 55.1484 641.569 54.3968 643.712 54.2342C646.521 54.0185 649.318 53.8302 652.124 54.2496C653.64 54.4773 655.112 54.8454 656.479 55.5352C658.027 56.3158 659.095 57.5415 659.735 59.149C660.294 60.5527 660.888 61.9445 661.474 63.3379C662.009 64.6098 662.839 65.6438 664.026 66.3748C665.003 66.9756 665.961 67.6125 666.974 68.1483C669.384 69.4202 670.431 71.5429 670.59 74.0867C671.02 80.9582 667.817 85.9277 662.111 89.5004C660.943 90.2314 659.69 90.8065 658.382 91.3098ZM609.669 101.889C610.028 102.016 610.107 102.05 610.19 102.072C620.048 104.743 629.906 107.412 639.762 110.086C640.268 110.223 640.761 110.277 641.289 110.221C645.253 109.798 649.22 109.387 653.187 108.997C653.791 108.937 653.827 108.68 653.654 108.204C653.187 106.919 652.762 105.616 652.277 104.337C648.164 93.4856 644.04 82.6375 639.924 71.7877C639.334 70.2316 639.809 69.1121 641.272 68.53C642.457 68.0593 643.62 68.6909 644.223 70.1323C647.891 78.9228 651.558 87.7149 655.231 96.5036C656.727 100.081 658.146 103.693 659.83 107.193C660.033 107.614 660.206 107.997 660.808 107.977C663.384 107.886 665.854 107.389 667.935 105.802C670.3 104 672.977 103.024 675.863 102.468C677.535 102.146 679.169 101.675 680.462 100.48C681.442 99.573 681.34 98.6846 680.205 97.9758C679.435 97.4965 678.571 97.2603 677.694 97.1199C673.025 96.3684 668.318 96.418 663.609 96.4951C662.087 96.5208 660.563 96.531 659.045 96.6132C658.315 96.6526 657.973 96.3547 657.704 95.7145C655.161 89.699 652.591 83.6937 650.025 77.6868C648.759 74.7236 647.525 71.7449 646.198 68.8073C645.285 66.7873 642.972 65.6524 640.951 66.0872C637.886 66.7463 636.375 69.6564 637.533 72.719C639.69 78.4263 641.862 84.1286 644.028 89.8342C644.868 92.0459 645.696 94.2645 646.561 96.4677C646.804 97.0891 646.668 97.3835 645.993 97.4109C645.82 97.4178 645.65 97.4315 645.477 97.4417C641.438 97.6763 637.414 98.0991 633.395 98.5476C628.664 99.0749 623.946 99.7254 619.232 100.383C616.109 100.816 613.001 101.358 609.669 101.889ZM598.236 125.181C598.239 125.116 598.243 125.051 598.244 124.986C596.683 124.434 595.126 123.873 593.558 123.344C593.33 123.267 593.045 123.308 592.797 123.353C591.586 123.57 590.376 123.791 589.17 124.041C587.522 124.381 587.638 124.099 587.634 125.939C587.634 125.996 587.639 126.054 587.634 126.11C587.577 126.668 587.798 126.997 588.355 127.196C589.622 127.646 590.873 128.144 592.119 128.647C592.704 128.884 592.94 128.777 592.956 128.103C592.987 126.776 593.313 126.413 594.59 126.092C595.805 125.783 597.021 125.484 598.236 125.181ZM617.015 131.819C617.02 131.758 617.027 131.696 617.032 131.635C615.632 131.154 614.233 130.671 612.832 130.197C612.73 130.162 612.599 130.164 612.495 130.197C610.166 130.936 607.733 131.196 605.355 131.703C604.962 131.787 604.574 131.852 604.57 132.419C604.567 132.958 604.668 133.317 605.253 133.524C606.848 134.088 608.43 134.689 609.995 135.324C610.673 135.599 610.884 135.498 610.863 134.736C610.823 133.292 611.084 133.018 612.501 132.728C614.005 132.422 615.51 132.124 617.015 131.819ZM587.838 121.42C586.766 121.043 585.89 120.773 585.046 120.429C583.772 119.91 582.471 119.929 581.158 120.153C579.262 120.478 578.862 120.997 578.877 122.895C578.881 123.43 579.048 123.729 579.567 123.909C580.568 124.255 581.548 124.659 582.542 125.028C584.606 125.795 584.608 125.792 584.668 123.65C584.67 123.594 584.67 123.537 584.671 123.479C584.697 122.671 585.084 122.139 585.886 121.928C586.466 121.774 587.047 121.625 587.838 121.42ZM607.174 128.413C607.181 128.356 607.188 128.3 607.195 128.243C606.453 127.985 605.716 127.714 604.969 127.475C604.486 127.321 604.035 126.994 603.488 127.12C601.171 127.661 598.857 128.213 596.54 128.752C596.182 128.834 595.989 129.012 595.979 129.39C595.968 129.782 595.996 130.132 596.441 130.294C598.03 130.875 599.616 131.462 601.204 132.042C601.592 132.184 601.733 132.016 601.711 131.636C601.699 131.409 601.707 131.181 601.711 130.953C601.723 129.787 601.94 129.507 603.078 129.262C604.441 128.971 605.809 128.695 607.174 128.413ZM624.125 134.344C623.528 133.905 622.962 133.697 622.257 133.841C619.731 134.351 617.192 134.798 614.658 135.262C614.236 135.339 613.891 135.44 613.872 135.979C613.855 136.481 614.035 136.76 614.521 136.933C615.898 137.419 617.26 137.946 618.63 138.455C620.041 138.98 620.041 138.978 620.048 137.508C620.057 135.916 620.395 135.45 621.917 134.98C622.65 134.752 623.39 134.555 624.125 134.344Z" fill="#4F4F4F"/>
<path d="M686.632 127.937C686.292 133.518 685.962 138.917 685.638 144.318C685.455 147.36 685.277 150.4 685.113 153.442C685.093 153.843 684.986 154.148 684.656 154.394C683.512 155.255 682.371 156.123 681.245 157.005C680.86 157.306 680.542 157.277 680.17 156.986C679.064 156.123 677.952 155.264 676.819 154.439C676.391 154.127 676.289 153.708 676.253 153.252C675.999 150.073 675.763 146.895 675.509 143.716C675.309 141.218 675.128 138.72 674.869 136.228C674.743 135.021 674.926 134.119 675.952 133.237C678.819 130.779 681.757 128.482 685.386 127.229C686.666 126.789 686.67 126.802 686.632 127.937Z" fill="#4F4F4F"/>
<path d="M599.081 144.015C598.745 148.168 598.407 152.307 598.077 156.447C597.984 157.609 597.891 158.773 597.844 159.939C597.815 160.685 597.502 161.002 596.774 161.327C594.469 162.359 592.561 161.93 590.618 160.413C589.644 159.653 589.16 158.968 589.103 157.717C588.93 153.91 588.594 150.111 588.331 146.309C588.169 143.953 588.035 141.596 587.864 139.241C587.824 138.683 588.059 138.674 588.471 138.826C591.86 140.076 595.249 141.327 598.641 142.565C599.492 142.873 598.921 143.541 599.081 144.015Z" fill="#4F4F4F"/>
<path d="M624.41 158.984C624.41 160.92 624.398 162.858 624.419 164.794C624.424 165.297 624.267 165.653 623.853 165.953C622.53 166.906 621.213 167.872 619.915 168.86C619.399 169.252 618.923 169.33 618.335 169.015C617.527 168.584 616.685 168.216 615.857 167.822C615.458 167.632 615.055 167.428 615.086 166.908C615.115 166.408 615.51 166.218 615.916 166.03C617.424 165.331 618.904 164.571 620.433 163.921C621.197 163.596 621.403 163.132 621.394 162.349C621.354 159.045 621.375 155.741 621.379 152.438C621.38 151.388 621.439 151.333 622.457 151.654C624.816 152.396 624.369 151.919 624.407 154.199C624.431 155.795 624.41 157.39 624.41 158.984Z" fill="#4F4F4F"/>
<path d="M618.016 156.395C618.016 158.361 617.999 160.326 618.027 162.291C618.035 162.892 617.837 163.233 617.247 163.429C615.723 163.934 614.215 164.489 612.698 165.016C612.512 165.081 612.289 165.179 612.117 165.134C610.643 164.756 609.221 164.229 607.844 163.589C607.57 163.46 607.468 163.161 607.529 162.851C607.618 162.394 607.956 162.192 608.379 162.118C609.905 161.854 611.433 161.611 612.957 161.343C615.338 160.923 615.038 161.397 615.048 158.907C615.062 155.972 615.048 153.038 615.054 150.104C615.055 148.986 615.131 148.921 616.16 149.259C618.294 149.959 617.992 149.356 618.013 151.78C618.028 153.319 618.018 154.858 618.016 156.395Z" fill="#4F4F4F"/>
</g>
</g>
<defs>
<clipPath id="clip0">
<rect width="766" height="700" fill="white"/>
</clipPath>
<clipPath id="clip1">
<rect width="125" height="127" fill="white" transform="translate(571 54)"/>
</clipPath>
</defs>
</svg>
